<svg xmlns="http://www.w3.org/2000/svg" xmlns:xlink="http://www.w3.org/1999/xlink"><defs>
<filter id="filter0_d" x="0.5" y="0.5" width="45" height="66" filterUnits="userSpaceOnUse" color-interpolation-filters="sRGB">
<feFlood flood-opacity="0" result="BackgroundImageFix"/>
<feColorMatrix in="SourceAlpha" type="matrix" values="0 0 0 0 0 0 0 0 0 0 0 0 0 0 0 0 0 0 127 0"/>
<feOffset dy="4"/>
<feGaussianBlur stdDeviation="2"/>
<feColorMatrix type="matrix" values="0 0 0 0 0 0 0 0 0 0 0 0 0 0 0 0 0 0 0.25 0"/>
<feBlend mode="normal" in2="BackgroundImageFix" result="effect1_dropShadow"/>
<feBlend mode="normal" in="SourceGraphic" in2="effect1_dropShadow" result="shape"/>
</filter>
<clipPath id="clip0"><path fill="#fff" transform="rotate(-90 6 6)" d="M0 0h12v7.4H0z"/></clipPath>
<filter id="filter0_d" x="0.5" y="0.5" width="45" height="66" filterUnits="userSpaceOnUse" color-interpolation-filters="sRGB">
<feFlood flood-opacity="0" result="BackgroundImageFix"/>
<feColorMatrix in="SourceAlpha" type="matrix" values="0 0 0 0 0 0 0 0 0 0 0 0 0 0 0 0 0 0 127 0"/>
<feOffset dy="4"/>
<feGaussianBlur stdDeviation="2"/>
<feColorMatrix type="matrix" values="0 0 0 0 0 0 0 0 0 0 0 0 0 0 0 0 0 0 0.25 0"/>
<feBlend mode="normal" in2="BackgroundImageFix" result="effect1_dropShadow"/>
<feBlend mode="normal" in="SourceGraphic" in2="effect1_dropShadow" result="shape"/>
</filter>
</defs><symbol id="icon-browser"><path fill="#4D4D4D" d="M356 0H4C1.8 0 0 1.8 0 4v36h360V4c0-2.2-1.8-4-4-4zM22.991 27a7 7 0 110-14 7 7 0 010 14zm23.011 0a7 7 0 110-14 7 7 0 010 14zm23.011 0a7 7 0 110-14 7 7 0 010 14z"/></symbol><symbol id="icon-burger"><path fill="#f07" d="M0 0h50v50H0z"/><path fill-rule="evenodd" clip-rule="evenodd" d="M13.75 32h22.5v-1h-22.5v1zm0-6.25h22.5v-1h-22.5v1zm0-7.25v1h22.5v-1h-22.5z" fill="#000"/></symbol><symbol id="icon-close" viewBox="0 0 23 23">
<path d="M20.8487 1.37761e-06L0 20.8487L2.15131 23L23 2.15131L20.8487 1.37761e-06Z" fill="white"/>
<path d="M2.15131 0L0 2.15131L20.8487 23L23 20.8487L2.15131 0Z" fill="white"/>
</symbol><symbol id="icon-css" viewBox="0 0 470.699 470.699"><path d="M426.981 0H43.701C34.52 0 27.632 7.769 28.442 16.949L63.45 409.254c.811 9.173 8.745 18.774 17.644 21.253L219.1 468.842c8.887 2.463 23.413 2.479 32.313.032l138.177-38.281c8.901-2.472 16.835-11.986 17.645-21.175l35.023-392.469C443.068 7.769 436.209 0 426.981 0zM360.51 141.611a.134.134 0 01-.112.117.134.134 0 01-.144-.077L252.13 185.96a3.485 3.485 0 001.321 6.708h84.103a15.772 15.772 0 0115.682 17.443l-13.141 123.273a15.77 15.77 0 01-10.447 13.205l-89.269 31.41a15.761 15.761 0 01-10.397.025l-88.852-30.778a15.771 15.771 0 01-10.52-13.228l-5.957-55.828a10.388 10.388 0 0110.331-11.492h24.725c5.313 0 9.769 4.007 10.331 9.289l3.655 34.316 61.521 21.385 61.803-21.58 7.559-71.17H129.835a10.39 10.39 0 01-10.327-9.25l-3.327-30.164a10.388 10.388 0 016.366-10.745l111.837-46.109a2.872 2.872 0 00-1.093-5.528H115.542a6.926 6.926 0 01-6.888-6.201l-3.406-32.421a6.927 6.927 0 016.887-7.648h246.379a6.928 6.928 0 016.881 7.707l-4.885 43.032z" fill="#f07"/></symbol><symbol id="icon-email"><path d="M24.227 0H1.773C.768 0 0 .765 0 1.765v16.47C0 19.235.768 20 1.773 20h22.454C25.232 20 26 19.235 26 18.235V1.765C26 .765 25.232 0 24.227 0zm0 17l-4.668-4.647a.86.86 0 00-1.24 0 .85.85 0 000 1.235l4.667 4.647H3.014l4.668-4.647a.85.85 0 000-1.235.86.86 0 00-1.241 0L1.773 17V5.706l10.636 8a.955.955 0 00.532.176.955.955 0 00.532-.176l10.754-8V17zm0-15.235V3.47l-11.286 8.352L1.773 3.471V1.765h22.454z" fill="#f07"/></symbol><symbol id="icon-figma" viewBox="0 0 1024 1024"><circle class="st0" cx="512" cy="512" r="512" fill="#f07"/><path class="st1" d="M512 512c0-47.1 38.2-85.3 85.3-85.3s85.3 38.2 85.3 85.3-38.2 85.3-85.3 85.3S512 559.1 512 512zM341.3 682.7c0-47.1 38.2-85.3 85.3-85.3H512v85.3c0 47.1-38.2 85.3-85.3 85.3s-85.4-38.2-85.4-85.3zM512 256v170.7h85.3c47.1 0 85.3-38.2 85.3-85.3S644.5 256 597.3 256H512zm-170.7 85.3c0 47.1 38.2 85.3 85.3 85.3H512V256h-85.3c-47.2 0-85.4 38.2-85.4 85.3zm0 170.7c0 47.1 38.2 85.3 85.3 85.3H512V426.7h-85.3c-47.2 0-85.4 38.2-85.4 85.3z" fill="#fff"/></symbol><symbol id="icon-github" viewBox="0 0 512 512"><path d="M218.7 445.5c-6.6.7-12.2 1.4-17.8 2-29.1 2.9-54.5-5-73.7-27.7-6-7.1-9.4-16.3-14.5-24.2-7.9-12.4-16-24.7-24.7-36.6-3-4.1-8.2-6.5-12.2-10-1.3-1.1-1.7-3.2-2.6-4.9 1.8-.7 3.5-1.9 5.3-2.1 23-2.1 39.2 8.5 50.5 27.6 14.1 23.8 34.5 36.8 62.2 36.8 8 0 16-2.7 23.9-4.5 1.5-.4 3.3-2.7 3.5-4.4 1.4-10.4 2.7-20.8 7.5-30.3 1.8-3.5 3.9-6.8 6-10.4-8.1-1.6-15.9-2.8-23.6-4.7-35.5-9-64.8-26.8-81.8-60.6-6.6-13.2-10.3-27.4-10.8-42.2-.8-22.8-.5-45.7 4.1-68.2 3.3-15.8 9.3-30.5 21.3-41.9 2.6-2.5 3.1-4.7 1.7-8.5-6.7-18.7-7.4-37.7-1.7-56.8 1.2-4.1 2.3-8.2 3.5-12.5 27.4 5.2 43.7 23.7 59 44.2 15.8-11.7 34.5-12.7 52.7-13.9 21.6-1.4 43.3-1.1 64.8 2.4 11.2 1.8 18.1 4.1 29 10.6 9.4-9.7 18.2-19.5 27.9-28.4 7.7-7.1 17.3-11.6 27.7-14 2.9-.7 4.4-.4 5.6 2.8 8.1 22.1 9.3 44.1.4 66.2-1.2 3-1.1 5.1 1.4 7.5 14.4 13.7 21 31.4 23.2 50.5 2 17.7 3.1 35.5 3.1 53.3 0 25.3-7.5 48.5-23.4 68.4-11.2 14.1-25.7 24.2-42.1 31.8-15.9 7.3-32.5 11.5-49.7 13.7-.4.1-.8.4-1.5.7 11.8 16.9 13.7 35.9 13.5 55.6-.3 28.7-.2 57.3 0 86 0 4.5-1.3 5.6-5.7 5.6-35.5-.2-71-.2-106.5 0-4.4 0-5.8-1.4-5.8-5.7.2-15.5.1-31 .1-46.5.2-2.3.2-4.3.2-6.7z"/></symbol><symbol id="icon-gulp" viewBox="0 0 32 32">
  <path d="M20.208 25.912l0.849-1.448c0 0-1.927 0.787-5.145 0.787-3.224 0-5.12-0.756-5.12-0.756l0.948 1.579 0.333 4.968c0 0.543 1.749 0.959 3.916 0.959 2.161 0 3.917-0.416 3.917-0.959l0.301-5.109zM21.027 16.516c-1.021 0.063-1.537 1.203-2.053 2.405-0.187 0.439-0.837 2.319-1.26 2.084-0.427-0.229 0.547-1.771 0.823-2.688-0.317 0.229-1.473 1.131-1.771 0.287-0.479 0.417-1.505 0.641-1.391-0.443-0.255 0.464-0.828 1.099-1.515 0.823-0.901-0.344 0.525-3.219 0.88-3.077 0.353 0.161-0.073 0.801-0.183 1.057-0.251 0.563-0.531 1.281-0.344 1.416 0.323 0.26 1.208-0.932 1.229-0.959 0.161-0.219 0.636-1.635 1.016-1.473 0.38 0.177-0.948 2.057-0.453 2.432 0.099 0.084 0.511-0.036 0.76-0.317 0.156-0.156 0.104-0.557 0.636-1.833 0.541-1.281 1.020-2.875 1.385-2.756 0.369 0.12 0.068 0.939-0.068 1.256-0.62 1.437-1.688 3.792-1.188 3.615 0.5-0.183 0.761-0.183 1.261-0.76 0.5-0.579 0.459-1.537 0.796-1.516 0.324 0.020 0.281 0.339 0.204 0.557 0.317-0.36 1.531-1.156 1.812-0.38 0.344 0.916-1.735 2.26-1.219 2.176 0.5-0.057 1.317-0.577 1.683-1.057l0.959-8.667c0 0-0.98 0.803-7.152 0.803-6.167 0-7.047-0.781-7.047-0.781l0.817 7.907c0.443-1.235 1.48-3.751 3.1-3.652 0.739 0.043 1.733 1.48 0.875 1.516-0.36 0.021-0.401-0.719-0.817-0.817-0.319-0.057-0.74 0.183-1.016 0.464-0.541 0.536-1.74 2.671-1.579 3.733 0.199 1.355 1.875-0.463 2.156-1 0.199-0.38 0.339-1.52 0.756-1.4 0.443 0.119-0.037 1.301-0.36 2.317-0.359 1.161-0.541 2.375-0.973 2.235-0.443-0.141 0.276-1.636 0.235-1.896-0.417 0.401-1.177 1.359-2.172 0.88l0.495 4.932c0 0 1.359 1.057 5.432 1.057s5.489-1.057 5.489-1.057l0.641-5.713c-0.521 0.521-2.157 1.416-2.256 0.401-0.077-0.819 1.776-1.995 1.297-2.021zM23.131 0.891l-3.547 3.735-0.652 2.536c2.511 0.156 4.256 0.516 4.256 0.921 0 0.563-3.219 1.011-7.188 1.011s-7.188-0.457-7.188-1.015c0-0.557 3.219-1.021 7.188-1.021 0.563 0 1.125 0 1.688 0.021l0.744-3.032 3.765-3.995c0.095-0.12 0.376-0.021 0.636 0.199 0.255 0.203 0.396 0.457 0.317 0.577v0.041zM18.016 8.62c0 0-0.699 0-0.813-0.109-0.031-0.032-0.047-0.079-0.047-0.12 0-0.079 0.052-0.12 0.12-0.145l0.057 0.099c-0.027 0.011-0.036 0.020-0.041 0.031 0 0.057 0.416 0.095 0.739 0.089 0.319-0.005 0.709-0.032 0.709-0.084 0-0.016-0.032-0.031-0.084-0.047l0.063-0.093c0.084 0.025 0.156 0.077 0.156 0.161 0 0.145-0.187 0.172-0.307 0.187-0.141 0.021-0.547 0.032-0.547 0.032z"/>
</symbol><symbol id="icon-html" viewBox="-27 0 512 512"><path d="M0 0l44.266 461.5 185.16 50.5 185.164-50.5L458.855 0zm386.477 437.82l-157.051 42.832L72.379 437.82 33.28 30.242h392.29zm0 0"/><path d="M99.637 275.934h178.261l-2.945 45.933-44.363 14.48-46.735-14.437v-25.039H98.04v86.219l132.527 41.219 123.489-35.918 16.086-194.914-193.957-2.227-2.243-20.055 196.864.004V88.465H78.71zm240.93-157.227v22.25l-200.438-.008 8.973 80.235 188.226 2.16-11.7 141.816-94.769 27.567-102.574-31.903v-33.707h25.328v17.102l77.227 23.86 72.98-23.821 6.32-98.567H126.692l-14.175-126.984zm0 0"/></symbol><symbol id="icon-instagram" viewBox="0 0 24 24"> <path d="M 8 3 C 5.243 3 3 5.243 3 8 L 3 16 C 3 18.757 5.243 21 8 21 L 16 21 C 18.757 21 21 18.757 21 16 L 21 8 C 21 5.243 18.757 3 16 3 L 8 3 z M 8 5 L 16 5 C 17.654 5 19 6.346 19 8 L 19 16 C 19 17.654 17.654 19 16 19 L 8 19 C 6.346 19 5 17.654 5 16 L 5 8 C 5 6.346 6.346 5 8 5 z M 17 6 A 1 1 0 0 0 16 7 A 1 1 0 0 0 17 8 A 1 1 0 0 0 18 7 A 1 1 0 0 0 17 6 z M 12 7 C 9.243 7 7 9.243 7 12 C 7 14.757 9.243 17 12 17 C 14.757 17 17 14.757 17 12 C 17 9.243 14.757 7 12 7 z M 12 9 C 13.654 9 15 10.346 15 12 C 15 13.654 13.654 15 12 15 C 10.346 15 9 13.654 9 12 C 9 10.346 10.346 9 12 9 z"/></symbol><symbol id="icon-js" viewBox="0 0 512 512"><path fill="#f07" d="M0 512h512V0H0z"/><path d="M397.241 476.69c-43.811 0-79.448-35.646-79.448-79.448a8.826 8.826 0 018.828-8.828 8.826 8.826 0 018.828 8.828c0 34.074 27.727 61.793 61.793 61.793s61.793-27.719 61.793-61.793-27.727-61.793-61.793-61.793c-43.811 0-79.448-35.646-79.448-79.448s35.637-79.448 79.448-79.448S476.69 212.198 476.69 256a8.826 8.826 0 01-8.828 8.828 8.826 8.826 0 01-8.828-8.828c0-34.074-27.727-61.793-61.793-61.793S335.448 221.926 335.448 256s27.727 61.793 61.793 61.793c43.811 0 79.448 35.646 79.448 79.448s-35.636 79.449-79.448 79.449m-185.379 0c-43.811 0-79.448-35.646-79.448-79.448 0-4.873 3.946-8.828 8.828-8.828s8.828 3.955 8.828 8.828c0 34.074 27.727 61.793 61.793 61.793s61.793-27.719 61.793-61.793V185.379c0-4.873 3.946-8.828 8.828-8.828s8.828 3.955 8.828 8.828v211.862c-.002 43.803-35.639 79.449-79.45 79.449" fill="#fff"/></symbol><symbol id="icon-left" viewBox="0 0 46 67">
<g filter="url(#filter0_d)">
<path d="M10.7836 29.5044L37.6568 5.75937C37.7655 5.66422 37.8519 5.55093 37.9108 5.42608C37.9697 5.30122 38 5.16728 38 5.03198C38 4.89669 37.9697 4.76275 37.9108 4.63789C37.8519 4.51303 37.7655 4.39975 37.6568 4.30459C37.548 4.20805 37.4188 4.13144 37.2765 4.07918C37.1342 4.02691 36.9816 4 36.8275 4C36.6734 4 36.5208 4.02691 36.3785 4.07918C36.2362 4.13144 36.1069 4.20805 35.9981 4.30459L8.34437 28.7646C8.23521 28.8608 8.14861 28.9752 8.08951 29.101C8.03042 29.2269 8 29.3619 8 29.4982C8 29.6345 8.03042 29.7694 8.08951 29.8953C8.14861 30.0212 8.23521 30.1355 8.34437 30.2317L35.9981 54.7041C36.2228 54.8951 36.5228 55.0013 36.8344 55C37.0644 54.9981 37.2886 54.9363 37.4792 54.8224C37.6697 54.7085 37.8181 54.5475 37.9058 54.3594C37.9935 54.1714 38.0167 53.9647 37.9724 53.765C37.9281 53.5654 37.8184 53.3818 37.6568 53.237L10.7836 29.5044Z" fill="#283645"/>
<path d="M10.7836 29.5044L37.6568 5.75937C37.7655 5.66422 37.8519 5.55093 37.9108 5.42608C37.9697 5.30122 38 5.16728 38 5.03198C38 4.89669 37.9697 4.76275 37.9108 4.63789C37.8519 4.51303 37.7655 4.39975 37.6568 4.30459C37.548 4.20805 37.4188 4.13144 37.2765 4.07918C37.1342 4.02691 36.9816 4 36.8275 4C36.6734 4 36.5208 4.02691 36.3785 4.07918C36.2362 4.13144 36.1069 4.20805 35.9981 4.30459L8.34437 28.7646C8.23521 28.8608 8.14861 28.9752 8.08951 29.101C8.03042 29.2269 8 29.3619 8 29.4982C8 29.6345 8.03042 29.7694 8.08951 29.8953C8.14861 30.0212 8.23521 30.1355 8.34437 30.2317L35.9981 54.7041C36.2228 54.8951 36.5228 55.0013 36.8344 55C37.0644 54.9981 37.2886 54.9363 37.4792 54.8224C37.6697 54.7085 37.8181 54.5475 37.9058 54.3594C37.9935 54.1714 38.0167 53.9647 37.9724 53.765C37.9281 53.5654 37.8184 53.3818 37.6568 53.237L10.7836 29.5044Z" stroke="black" stroke-width="7"/>
</g>

</symbol><symbol id="icon-link"><g clip-path="url(#clip0)"><path fill-rule="evenodd" clip-rule="evenodd" d="M0 1.4L4.6 6 0 10.6 1.4 12l6-6-6-6L0 1.4z" fill="white" fill-opacity="1"/></g></symbol><symbol id="icon-logo"><path d="M30.75 36.327c-.657 0-1.19.512-1.19 1.143s.533 1.143 1.19 1.143h.011c.657 0 1.184-.512 1.184-1.143s-.538-1.143-1.195-1.143zM6.62 32.09a1.223 1.223 0 00-1.682 0 1.13 1.13 0 00-.349.808c0 .302.127.596.349.808a1.224 1.224 0 001.681 0c.222-.212.35-.507.35-.808 0-.3-.128-.595-.35-.808z" fill="#000"/><path d="M56.09.437H5.185C2.429.437.188 2.591.188 5.237V37.47c0 3.151 2.668 5.715 5.948 5.715h18.079v4.343h-1.666c-2.754 0-4.995 2.154-4.995 4.801v.914c0 .632.532 1.143 1.19 1.143H42.53c.657 0 1.19-.511 1.19-1.143v-.914c0-2.647-2.241-4.8-4.996-4.8H37.06v-4.344h18.08c3.278 0 5.946-2.564 5.946-5.715V5.238c0-2.647-2.24-4.8-4.995-4.8zM38.726 49.814c1.363 0 2.486 1.007 2.606 2.286H19.943c.121-1.28 1.244-2.286 2.606-2.286h16.176zM26.593 47.53v-4.344h8.088v4.343h-8.088zm32.114-10.06c0 1.892-1.6 3.43-3.568 3.43H6.136c-1.968 0-3.569-1.538-3.569-3.43V5.239c0-1.387 1.174-2.515 2.617-2.515h24.264v29.032H10.06c-.657 0-1.19.512-1.19 1.143 0 .632.533 1.143 1.19 1.143h48.646v3.429zm0-5.714h-26.88V2.723H56.09c1.442 0 2.616 1.128 2.616 2.515v26.517z" fill="#000"/><path d="M53.965 5.01H35.41c-.657 0-1.19.51-1.19 1.142v8.23c0 .63.533 1.143 1.19 1.143h18.555c.657 0 1.19-.512 1.19-1.143v-8.23c0-.631-.533-1.143-1.19-1.143zm-1.19 8.229H36.6V7.295h16.175v5.944zm-37.651 4.343H7.37c-.657 0-1.19.511-1.19 1.143 0 .631.533 1.143 1.19 1.143h7.754c.657 0 1.19-.512 1.19-1.143 0-.632-.533-1.143-1.19-1.143zm10.016 0h-5.923c-.656 0-1.189.511-1.189 1.143 0 .631.533 1.143 1.19 1.143h5.922c.657 0 1.19-.512 1.19-1.143 0-.632-.533-1.143-1.19-1.143zm0 9.142h-2.214c-.657 0-1.19.512-1.19 1.143 0 .632.533 1.143 1.19 1.143h2.214c.657 0 1.19-.511 1.19-1.143 0-.63-.533-1.143-1.19-1.143zm-6.957.002H7.37c-.657 0-1.19.511-1.19 1.143 0 .63.533 1.143 1.19 1.143h10.813c.657 0 1.19-.512 1.19-1.143 0-.632-.533-1.143-1.19-1.143zm-6.936-4.572H7.37c-.657 0-1.19.511-1.19 1.142 0 .632.533 1.143 1.19 1.143h3.877c.657 0 1.19-.511 1.19-1.143 0-.63-.533-1.142-1.19-1.142zm13.893 0h-8.18c-.658 0-1.19.511-1.19 1.142 0 .632.532 1.143 1.19 1.143h8.18c.657 0 1.19-.511 1.19-1.143 0-.63-.533-1.142-1.19-1.142zm28.825-4.572H35.463c-.657 0-1.19.511-1.19 1.143 0 .631.533 1.143 1.19 1.143h18.502c.657 0 1.19-.512 1.19-1.143 0-.632-.533-1.143-1.19-1.143zm.841 9.478a1.22 1.22 0 00-1.682 0 1.123 1.123 0 00-.348.809c0 .3.126.595.348.808a1.222 1.222 0 001.682 0 1.13 1.13 0 00.349-.808c0-.302-.128-.596-.349-.808zm-5.673-.334h-13.67c-.657 0-1.19.511-1.19 1.143 0 .63.533 1.143 1.19 1.143h13.67c.656 0 1.189-.512 1.189-1.143 0-.632-.533-1.143-1.19-1.143zm4.832-4.572H35.463c-.657 0-1.19.511-1.19 1.142 0 .632.533 1.143 1.19 1.143h18.502c.657 0 1.19-.511 1.19-1.143 0-.63-.533-1.142-1.19-1.142zM6.283 11.204l1.642-1.837c.34-.38.34-.998 0-1.378a.808.808 0 00-1.232 0l-2.258 2.526c-.34.38-.34.997 0 1.378l2.258 2.525c.17.19.393.286.616.286a.824.824 0 00.616-.286c.34-.38.34-.997 0-1.378l-1.642-1.836zm20.835-.689L24.86 7.989a.807.807 0 00-1.232 0c-.34.38-.34.998 0 1.378l1.642 1.837-1.642 1.837c-.34.38-.34.997 0 1.378.17.19.393.285.616.285a.824.824 0 00.616-.285l2.258-2.526c.34-.38.34-.998 0-1.378zM10.663 12.77l1.309-4.058h.923L11 13.995h-.688L8.396 8.712h.923l1.343 4.058zm4.844 0l1.308-4.058h.923l-1.894 5.283h-.689l-1.914-5.283h.923l1.343 4.058zm4.844 0l1.308-4.058h.923l-1.895 5.283H20l-1.914-5.283h.923l1.343 4.058z" fill="#000"/></symbol><symbol id="icon-menu-btn" viewBox="0 0 50 24">
<path d="M1.13659 0.00020839C0.986512 -0.00251551 0.837358 0.0214885 0.698091 0.0707781C0.558823 0.120068 0.432317 0.193625 0.326173 0.28703C0.22003 0.380436 0.136442 0.49176 0.0804303 0.614315C0.024419 0.73687 -0.00285856 0.868124 0.000236809 1.00019V3.00016C0.000236809 3.26537 0.119959 3.51972 0.333067 3.70725C0.546174 3.89478 0.83521 4.00014 1.13659 4.00014H48.8634C49.0135 4.00286 49.1626 3.97886 49.3019 3.92957C49.4412 3.88028 49.5677 3.80672 49.6738 3.71332C49.78 3.61991 49.8636 3.50859 49.9196 3.38603C49.9756 3.26348 50.0029 3.13222 49.9998 3.00016V1.00019C49.9998 0.734979 49.88 0.48063 49.6669 0.293097C49.4538 0.105563 49.1648 0.00020839 48.8634 0.00020839H1.13659ZM1.13659 10C0.986512 9.99731 0.837358 10.0213 0.698091 10.0706C0.558823 10.1199 0.432317 10.1935 0.326173 10.2869C0.22003 10.3803 0.136442 10.4916 0.0804303 10.6141C0.024419 10.7367 -0.00285856 10.868 0.000236809 11V13C0.000236809 13.2652 0.119959 13.5195 0.333067 13.7071C0.546174 13.8946 0.83521 14 1.13659 14H48.8634C49.0135 14.0027 49.1626 13.9787 49.3019 13.9294C49.4412 13.8801 49.5677 13.8065 49.6738 13.7131C49.78 13.6197 49.8636 13.5084 49.9196 13.3859C49.9756 13.2633 50.0029 13.132 49.9998 13V11C49.9998 10.7348 49.88 10.4805 49.6669 10.2929C49.4538 10.1054 49.1648 10 48.8634 10H1.13659ZM1.13659 19.9999C0.986512 19.9971 0.837358 20.0211 0.698091 20.0704C0.558823 20.1197 0.432317 20.1933 0.326173 20.2867C0.22003 20.3801 0.136442 20.4914 0.0804303 20.614C0.024419 20.7365 -0.00285856 20.8678 0.000236809 20.9998V22.9998C0.000236809 23.265 0.119959 23.5194 0.333067 23.7069C0.546174 23.8944 0.83521 23.9998 1.13659 23.9998H48.8634C49.0135 24.0025 49.1626 23.9785 49.3019 23.9292C49.4412 23.8799 49.5677 23.8064 49.6738 23.713C49.78 23.6196 49.8636 23.5082 49.9196 23.3857C49.9756 23.2631 50.0029 23.1319 49.9998 22.9998V20.9998C49.9998 20.7346 49.88 20.4803 49.6669 20.2927C49.4538 20.1052 49.1648 19.9999 48.8634 19.9999H1.13659Z" fill="#ff0077"/>
</symbol><symbol id="icon-phone"><path d="M3.456 6.624c-.084-1.198.182-2.378.885-3.327.61-.86 1.404-1.33 2.362-1.605.806-.24 1.334.054 1.567.95.332 1.34.806 2.68.978 4.092.055.62-.347 1.5-.782 1.952-1.09 1.073-.863 1.854-.036 3.478.257.524.664 1.43 1.459 2.628.827 1.207 1.265 1.855 2.328 1.306 1.18-.594 2.041-.212 2.932.746.604.693 1.269 1.288 1.873 1.98.872 1.03.833 1.74.15 2.467-1.229 1.34-3.258 1.783-4.768.886-.833-.489-1.664-1.128-2.325-1.874-2.914-3.32-5.016-7.182-6.281-11.54a10.989 10.989 0 01-.342-2.139z" stroke="#f07" stroke-width="2" stroke-miterlimit="10"/></symbol><symbol id="icon-photoshop" viewBox="0 0 54 54"><path d="M19.68 14.8h-6.52V28h6.68c.96 0 1.773-.187 2.44-.56.666-.374 1.153-.773 1.46-1.2.306-.427.546-1.04.72-1.84.173-.801.267-1.4.28-1.801.013-.399.02-.973.02-1.72 0-4.052-1.694-6.079-5.08-6.079z"/><path d="M41.824 0H12.176C5.462 0 0 5.462 0 12.176v29.648C0 48.538 5.462 54 12.176 54h29.648C48.538 54 54 48.538 54 41.824V12.176C54 5.462 48.538 0 41.824 0zM27.56 23.26c-.054.681-.22 1.534-.5 2.561-.28 1.026-.66 1.866-1.14 2.52-.48.654-1.213 1.227-2.2 1.72-.987.494-2.16.74-3.52.74h-7.04V40h-2.88V12h9.64c2.613 0 4.553.813 5.82 2.44 1.266 1.626 1.9 3.76 1.9 6.399 0 .934-.027 1.741-.08 2.421zM43.2 38.94c-1.2 1.106-2.954 1.66-5.26 1.66-2.307 0-4.114-.547-5.42-1.64-1.307-1.093-1.987-2.44-2.04-4.04l2.8-.12c.106.987.6 1.754 1.48 2.3.88.547 1.893.82 3.04.82s2.14-.26 2.98-.78c.84-.52 1.26-1.266 1.26-2.239s-.36-1.747-1.08-2.32c-.72-.573-1.6-1.026-2.64-1.36-1.04-.333-2.086-.686-3.14-1.06a7.36 7.36 0 01-2.78-1.76c-.987-.934-1.48-2.073-1.48-3.42s.54-2.601 1.62-3.761 2.833-1.739 5.26-1.739c.854 0 1.653.1 2.4.3.746.2 1.28.394 1.6.58l.48.279-.92 2.521c-.854-.666-1.974-1-3.36-1-1.387 0-2.42.26-3.1.78-.68.52-1.02 1.18-1.02 1.979 0 .88.426 1.574 1.28 2.08.853.507 1.813.934 2.88 1.28 1.066.347 2.126.733 3.18 1.16 1.053.427 1.946 1.094 2.68 2s1.1 2.106 1.1 3.6c0 1.494-.6 2.794-1.8 3.9z"/></symbol><symbol id="icon-play"><path fill-rule="evenodd" clip-rule="evenodd" d="M.6.4l13 9.1-13 9.1V.4z" fill="#070707"/></symbol><symbol id="icon-right" viewBox="0 0 46 67">
<g filter="url(#filter0_d)">
<path d="M35.2164 29.4956L8.34319 53.2406C8.23446 53.3358 8.14815 53.4491 8.08924 53.5739C8.03033 53.6988 8 53.8327 8 53.968C8 54.1033 8.03033 54.2373 8.08924 54.3621C8.14815 54.487 8.23446 54.6002 8.34319 54.6954C8.45196 54.792 8.58121 54.8686 8.72353 54.9208C8.86585 54.9731 9.01843 55 9.17253 55C9.32662 55 9.4792 54.9731 9.62152 54.9208C9.76383 54.8686 9.89309 54.792 10.0019 54.6954L37.6556 30.2354C37.7648 30.1392 37.8514 30.0248 37.9105 29.899C37.9696 29.7731 38 29.6381 38 29.5018C38 29.3655 37.9696 29.2306 37.9105 29.1047C37.8514 28.9788 37.7648 28.8645 37.6556 28.7683L10.0019 4.29589C9.77718 4.10485 9.47721 3.99873 9.16555 4.00001C8.93559 4.00192 8.71135 4.06368 8.52083 4.1776C8.3303 4.29152 8.18192 4.45255 8.09421 4.64059C8.0065 4.82862 7.98334 5.03535 8.02762 5.23496C8.07189 5.43457 8.18165 5.61822 8.34319 5.76301L35.2164 29.4956Z" fill="#283645"/>
<path d="M35.2164 29.4956L8.34319 53.2406C8.23446 53.3358 8.14815 53.4491 8.08924 53.5739C8.03033 53.6988 8 53.8327 8 53.968C8 54.1033 8.03033 54.2373 8.08924 54.3621C8.14815 54.487 8.23446 54.6002 8.34319 54.6954C8.45196 54.792 8.58121 54.8686 8.72353 54.9208C8.86585 54.9731 9.01843 55 9.17253 55C9.32662 55 9.4792 54.9731 9.62152 54.9208C9.76383 54.8686 9.89309 54.792 10.0019 54.6954L37.6556 30.2354C37.7648 30.1392 37.8514 30.0248 37.9105 29.899C37.9696 29.7731 38 29.6381 38 29.5018C38 29.3655 37.9696 29.2306 37.9105 29.1047C37.8514 28.9788 37.7648 28.8645 37.6556 28.7683L10.0019 4.29589C9.77718 4.10485 9.47721 3.99873 9.16555 4.00001C8.93559 4.00192 8.71135 4.06368 8.52083 4.1776C8.3303 4.29152 8.18192 4.45255 8.09421 4.64059C8.0065 4.82862 7.98334 5.03535 8.02762 5.23496C8.07189 5.43457 8.18165 5.61822 8.34319 5.76301L35.2164 29.4956Z" stroke="black" stroke-width="7"/>
</g>

</symbol><symbol id="icon-sass" viewBox="0 0 512 512"><path d="M512 256c0 7.91-.355 15.726-1.066 23.448a245.065 245.065 0 01-2.299 18.119C488.782 419.182 383.227 512 256 512c-64.805 0-123.977-24.074-169.075-63.781a256.87 256.87 0 01-43.802-49.977C15.882 357.564 0 308.632 0 256 0 114.615 114.615 0 256 0s256 114.615 256 256z" fill="#f07"/><path d="M446.767 284.975c-7.764 2.936-7.45 2.988-11.557-4.493-5.245-9.529-8.035-19.55-8.276-30.448-.199-9.352 2.361-18.045 5.58-26.572 2.57-6.781-.773-9.174-6.646-9.791-4.274-.439-8.683-.397-12.967.042-11.139 1.139-12.236 2.1-15.193 12.915-1.755 6.416-3.156 12.884-6.071 18.975-7.189 14.994-15.36 29.435-23.74 43.771-1.505 2.581-2.748 5.36-4.869 7.565-6.071-9.091-8.359-19.132-8.871-29.665-.512-10.397 2.675-20.062 6.175-29.623 1.181-3.218.199-5.214-2.581-6.604-1.233-.616-2.612-1.191-3.96-1.296-7.147-.564-14.273-.481-21.243 1.473-3.135.867-5.183 2.623-5.883 6.144a93.771 93.771 0 01-6.343 20.01c-7.941 17.826-15.83 35.683-23.761 53.52-6.896 15.496-13.688 31.033-21.859 45.913-.575 1.055-1.055 2.884-2.497 2.518-1.463-.366-.951-2.163-1.014-3.396-.47-8.777 1.923-17.147 3.96-25.527 3.229-13.26 6.76-26.457 10.188-39.675.982-3.793-.669-6.343-3.814-8.161-4.524-2.602-9.028-2.727-13.928.919.669-5.392.961-10.125.731-14.858-.522-10.553-5.413-17.418-13.928-19.007-6.217-1.16-12.1.648-17.659 3.281-12.957 6.134-23.374 15.381-32.131 26.603-1.024 1.306-2.058 2.508-3.542 3.312-16.436 8.955-32.862 17.91-49.256 26.948-1.797 1.003-2.957.721-4.253-.669-8.255-8.85-17.836-16.154-27.324-23.562-13.26-10.365-26.979-20.187-38.421-32.684-6.687-7.314-12.267-15.329-15.057-25.004-4.556-15.82-1.149-30.553 6.437-44.554 8.976-16.562 22.288-29.351 36.968-40.741 23.312-18.077 48.88-32.434 75.828-44.251 30.177-13.218 61.482-21.734 94.824-20.449 13.208.512 26.028 2.8 37.794 9.268 8.328 4.577 13.845 11.191 15.402 20.898 1.829 11.368-.899 21.87-5.945 31.828-11.274 22.246-29.194 38.003-50.375 50.343-17.638 10.271-36.665 16.792-56.801 20.208-11.128 1.891-22.298 3.03-33.489 1.327-12.842-1.954-24.712-6.248-33.499-16.593-1.014-1.191-2.299-2.017-4.023-1.181-1.766.857-1.63 2.424-1.463 3.929.125 1.034.408 2.079.773 3.062 2.351 6.343 6.75 11.128 11.901 15.308 13.396 10.898 29.268 14.096 45.934 14.42 16.311.324 32.371-1.745 48.264-5.548 35.85-8.568 65.881-26.154 87.803-56.289 13.103-18.014 21.4-37.867 20.668-60.583-.47-14.409-5.319-27.136-15.82-37.48-12.487-12.278-27.982-18.453-44.607-22.162-18.516-4.117-37.219-4.702-56.111-2.445-16.436 1.964-32.496 5.329-48.128 10.71-23.918 8.244-47.02 18.369-69.13 30.678-22.653 12.601-44.001 27.032-62.725 45.108-16.572 15.997-30.814 33.646-38.839 55.557-3.427 9.383-5.893 19.028-3.594 29.174 2.947 13.061 9.383 24.367 17.847 34.565 12.8 15.444 28.505 27.606 44.701 39.225 13.009 9.341 26.624 17.847 39.121 27.888 3.542 2.842 3.521 2.842-.648 5.026-4.869 2.539-9.791 4.984-14.576 7.69-19.298 10.91-37.949 22.738-53.174 39.175-7.492 8.098-12.581 17.189-14.952 27.282a256.811 256.811 0 0043.802 49.977c28.432-2.215 50.197-17.011 66.278-41.482 7.764-11.818 11.4-25.192 12.769-39.299 1.202-12.434-.063-24.472-3.72-36.342-.637-2.09-3.009-4.169-2.079-6.008.867-1.693 3.48-2.55 5.402-3.657 7.753-4.504 15.527-8.944 23.51-13.531.345 1.714-.324 2.717-.616 3.803-4.577 16.792-7.764 33.719-4.284 51.169 2.163 10.867 5.768 21.096 12.622 30.093 7.053 9.258 22.8 8.202 29.194-.251 6.071-8.025 10.094-17.074 14.284-26.081 2.299-4.932 4.409-9.947 6.604-14.932-.408 5.998-.387 11.849-.167 17.68.219 5.747 1.139 11.421 4.127 16.499 3.594 6.102 10.355 7.879 16.635 4.618 6.625-3.438 11.139-9.101 14.649-15.245 15.057-26.425 29.027-53.415 40.594-81.596 2.466-5.987 4.995-11.964 7.785-18.62.428 2.184.711 3.521.972 4.859 2.57 13.427 7.147 26.133 13.772 38.076 1.421 2.56 1.264 4.326-.533 6.781-6.102 8.307-12.79 16.123-19.383 24.022-5.538 6.646-11.463 12.999-16.144 20.313-4.2 6.583-1.787 13.322 5.204 14.817 2.152.46 4.42.596 6.625.564 12.215-.146 23.489-3.793 33.991-9.77 14.137-8.056 22.518-19.864 22.131-36.676-.178-7.649-2.247-14.994-5.329-22.006-.679-1.557-.711-2.685.303-4.148 9.791-14.023 18.442-28.724 26.394-43.854 1.411-2.664 2.403-5.622 4.681-8.223.303 1.055.543 1.714.679 2.393 2.529 12.539 5.935 24.795 12.33 35.986 1.755 3.062.878 4.618-1.546 6.666-8.349 7.095-15.391 15.37-20.919 24.848-4.305 7.377-7.252 15.255-7.22 23.897.031 9.613 7.387 15.276 16.76 13.019 9.77-2.341 18.829-6.322 26.958-12.267 17.711-12.967 22.904-26.645 17.356-45.735-2.173-7.513-2.132-7.387 5.402-9.665 16.478-4.974 33.196-5.183 49.998-2.445 1.902.313 3.783.669 5.642 1.076a245.533 245.533 0 002.299-18.119c-21.494-5.254-42.957-2.527-64.168 5.529zM98.586 419.401c-4.775 1.693-9.738 2.414-14.817 2.017-6.322-.502-10.334-4.963-10.742-11.672-.46-7.732 1.829-14.712 5.214-21.504 6.154-12.33 16.488-20.699 27.032-28.912 10.25-7.993 21.264-14.817 32.402-21.452 3.375-2.006 3.427-1.985 4.2 2.038 1.003 5.162 1.902 10.334 1.567 15.026.879 28.138-19.559 55.504-44.856 64.459zm153.37-141.887c-1.776 11.86-5.653 23.155-9.78 34.314-5.622 15.235-11.097 30.542-18.171 45.192-1.62 3.375-3.323 6.729-5.945 9.477-2.476 2.602-4.671 2.299-6.384-.878-3.344-6.207-2.926-13.113-3.469-18.129.157-25.161 8.6-45.725 22.507-64.209 3.887-5.151 8.85-9.341 15.423-11.024 4.461-1.137 6.519.66 5.819 5.257zm97.385 74.491c-4.765 8.234-11.63 14.221-20.052 18.484-.899.449-2.058 1.243-2.873.188-.773-.993.47-1.651 1.034-2.278 8.37-9.143 16.635-18.359 24.085-28.275.115-.157.397-.178 1.034-.449-.073 4.588-1.076 8.621-3.228 12.33zm57.793-.355c-1.243.585-2.685 1.682-3.897.742-1.337-1.034-.805-2.863-.397-4.263 1.902-6.384 4.462-12.497 7.993-18.192 2.967-4.796 6.646-8.986 10.689-12.894 1.63-1.567 2.361-1.379 2.915.878.575 2.309.627 4.618.669 6.969-.104 12.863-6.635 21.421-17.972 26.76z" fill="#fff"/></symbol><symbol id="icon-telegram"><path d="M44.377 5.986c-.487.022-.961.157-1.389.328-.423.17-2.86 1.21-6.457 2.748a20314.52 20314.52 0 00-12.91 5.528c-9.272 3.972-18.383 7.88-18.383 7.88l.067-.025s-.55.184-1.108.573a3.078 3.078 0 00-.824.81 2.145 2.145 0 00-.357 1.432c.237 1.925 2.232 2.47 2.232 2.47l.008.004 8.902 3.047c.227.757 2.7 9.012 3.244 10.76.3.966.582 1.524.875 1.904.147.19.301.338.471.446.068.042.139.075.209.103h.004c.009.004.017.004.025.008l-.023-.006c.016.007.032.018.049.024.031.01.05.01.092.02 1.02.355 1.863-.306 1.863-.306l.035-.027 5.469-5.072 8.875 6.92.111.05c1.553.69 2.958.305 3.736-.328s1.084-1.449 1.084-1.449l.034-.086 6.521-33.99c.167-.76.19-1.418.033-2.012-.157-.594-.54-1.11-1.02-1.396a2.588 2.588 0 00-1.468-.358zm.053 2.034c.197-.01.344.013.39.04.047.028.067.024.112.192.044.167.068.52-.053 1.072l-.004.012-6.484 33.793c-.016.034-.15.347-.46.598-.314.256-.664.456-1.593.066l-9.705-7.568-.274-.215-.005.006-2.903-2.178 16.31-19.19A1 1 0 0038.976 13a1 1 0 00-.53.168L14.844 28.902 5.928 25.85s-.886-.493-.928-.836c-.002-.02-.013-.002.033-.07.046-.07.162-.185.307-.286.29-.202.62-.324.62-.324l.034-.012.033-.013s9.112-3.91 18.383-7.881c4.636-1.986 9.312-3.988 12.908-5.526 3.596-1.537 6.194-2.644 6.414-2.732.25-.1.5-.141.698-.15zM33.613 18.793L21.244 33.346l-.006.006a1 1 0 00-.054.072 1 1 0 00-.055.084 1 1 0 00-.131.385 1 1 0 000 .007l-1.611 7.246c-.027-.078-.046-.106-.075-.199v-.002a2314.72 2314.72 0 01-3.167-10.506l17.468-11.646zM22.641 35.73l2.222 1.668-3.265 3.028 1.043-4.696z"/></symbol><symbol id="icon-vk" viewBox="0 0 26 26"><path fill-rule="evenodd" d="M 5.097656 0 L 20.90625 0 C 23.707031 0 26 2.292969 26 5.09375 L 26 20.90625 C 26 23.707031 23.707031 26 20.902344 26 L 5.097656 26 C 2.292969 26 0 23.707031 0 20.90625 L 0 5.09375 C 0 2.292969 2.292969 0 5.097656 0 Z M 19.296875 15.734375 C 19.296875 14.777344 19.03125 14.015625 18.511719 13.449219 C 17.984375 12.882813 17.289063 12.511719 16.417969 12.324219 L 16.417969 12.253906 C 17.023438 11.996094 17.496094 11.605469 17.839844 11.0625 C 18.1875 10.527344 18.359375 9.914063 18.359375 9.226563 C 18.359375 8.632813 18.230469 8.109375 17.980469 7.652344 C 17.734375 7.199219 17.355469 6.835938 16.851563 6.5625 C 16.386719 6.308594 15.886719 6.144531 15.351563 6.066406 C 14.816406 5.988281 14.03125 5.949219 12.996094 5.949219 L 7.9375 5.949219 L 7.9375 20.054688 L 13.65625 20.054688 C 14.636719 20.054688 15.441406 19.96875 16.074219 19.789063 C 16.714844 19.613281 17.296875 19.316406 17.828125 18.902344 C 18.277344 18.550781 18.632813 18.117188 18.898438 17.585938 C 19.164063 17.054688 19.296875 16.4375 19.296875 15.734375 Z M 14.757813 9.9375 C 14.757813 9.710938 14.699219 9.476563 14.582031 9.238281 C 14.46875 9 14.285156 8.824219 14.035156 8.714844 C 13.800781 8.613281 13.53125 8.558594 13.210938 8.546875 C 12.890625 8.539063 12.410156 8.535156 11.78125 8.535156 L 11.535156 8.535156 L 11.535156 11.519531 L 11.984375 11.519531 C 12.585938 11.519531 13.011719 11.511719 13.253906 11.5 C 13.496094 11.484375 13.753906 11.421875 14.011719 11.304688 C 14.289063 11.171875 14.488281 10.984375 14.59375 10.753906 C 14.703125 10.519531 14.757813 10.246094 14.757813 9.9375 Z M 15.644531 15.671875 C 15.644531 15.234375 15.5625 14.894531 15.382813 14.648438 C 15.203125 14.398438 14.9375 14.214844 14.585938 14.089844 C 14.371094 14.003906 14.074219 13.960938 13.699219 13.949219 C 13.324219 13.941406 12.820313 13.9375 12.191406 13.9375 L 11.535156 13.9375 L 11.535156 17.46875 L 11.726563 17.46875 C 12.648438 17.46875 13.285156 17.464844 13.636719 17.449219 C 13.992188 17.433594 14.355469 17.351563 14.71875 17.191406 C 15.039063 17.050781 15.273438 16.851563 15.425781 16.585938 C 15.570313 16.316406 15.644531 16.011719 15.644531 15.671875 Z"/></symbol><symbol id="icon-whatsapp" viewBox="0 0 128 128"><path d="M64 2C29.8 2 2 29.8 2 64c0 10.5 2.6 20.8 7.7 29.9l-5.3 19.4c-.9 3.1 0 6.3 2.3 8.6s5.5 3.2 8.6 2.4l20.2-5.3c8.8 4.6 18.6 7 28.6 7 34.2 0 62-27.8 62-62 0-16.6-6.4-32.1-18.1-43.8C96.2 8.5 80.6 2 64 2zm0 6c15 0 29.1 5.8 39.6 16.4C114.2 35 120.1 49.1 120 64c0 30.9-25.1 56-56 56-9.3 0-18.6-2.4-26.8-6.8-.4-.2-.9-.4-1.4-.4-.3 0-.5 0-.8.1l-21.3 5.6c-1.5.4-2.5-.4-2.9-.8-.4-.4-1.2-1.4-.8-2.9l5.6-20.6c.2-.8.1-1.6-.3-2.3C10.5 83.5 8 73.8 8 64 8 33.1 33.1 8 64 8zm0 9c-25.9 0-47 21-47 47a47 47 0 006.3 23.5c1.6 2.8 2 6.1 1.2 9.2l-2.9 10.5 11.2-2.9c1-.3 2-.4 3-.4 2 0 4 .5 5.7 1.5C48.4 109 56.1 111 64 111c25.9 0 47-21.1 47-47 0-12.6-4.9-24.4-13.8-33.3C88.4 21.9 76.6 17 64 17zM43.1 36.7h2.8c1.1 0 2.2.1 3.3 2.5 1.3 2.9 4.2 10.2 4.5 10.9.4.7.6 1.6.1 2.6s-.7 1.6-1.5 2.5c-.7.9-1.6 1.9-2.2 2.6-.7.7-1.5 1.5-.6 3s3.8 6.3 8.2 10.2c5.6 5 10.4 6.6 11.9 7.3 1.5.7 2.3.6 3.2-.4.9-1 3.7-4.3 4.7-5.8s2-1.2 3.3-.7c1.4.5 8.6 4.1 10.1 4.8 1.5.7 2.5 1.1 2.8 1.7.4.8.4 3.7-.8 7.2-1.2 3.4-7.2 6.8-10 7-2.7.2-5.2 1.2-17.7-3.7-15-5.9-24.5-21.3-25.2-22.3-.7-1-6-8-6-15.3 0-7.3 3.8-10.8 5.2-12.3 1.4-1.5 2.9-1.8 3.9-1.8z"/></symbol></svg>