<svg xmlns="http://www.w3.org/2000/svg" xmlns:xlink="http://www.w3.org/1999/xlink"><defs>
<clipPath id="clip0">
<rect width="12" height="7.4" fill="white" transform="translate(0 12) rotate(-90)"/>
</clipPath>
</defs><symbol id="icon-burger" viewBox="0 0 50 50">
<rect width="50" height="50" fill="#0AD9C6"/>
<path fill-rule="evenodd" clip-rule="evenodd" d="M13.75 32H36.25V31H13.75V32ZM13.75 25.75H36.25V24.75H13.75V25.75ZM13.75 18.5V19.5H36.25V18.5H13.75Z" fill="black"/>
</symbol><symbol id="icon-close" viewBox="0 0 24 25">
<path d="M1 23.7213L23 1M23 23.7213L1 1" stroke="#141517" stroke-opacity="0.2" stroke-linecap="round" stroke-linejoin="round"/>
</symbol><symbol id="icon-email" viewBox="0 0 26 20">
<path d="M24.2273 0H1.77273C0.768182 0 0 0.764706 0 1.76471V18.2353C0 19.2353 0.768182 20 1.77273 20H24.2273C25.2318 20 26 19.2353 26 18.2353V1.76471C26 0.764706 25.2318 0 24.2273 0ZM24.2273 17L19.5591 12.3529C19.2045 12 18.6727 12 18.3182 12.3529C17.9636 12.7059 17.9636 13.2353 18.3182 13.5882L22.9864 18.2353H3.01362L7.68182 13.5882C8.03636 13.2353 8.03636 12.7059 7.68182 12.3529C7.32727 12 6.79547 12 6.44092 12.3529L1.77273 17V5.70585L12.4091 13.7059C12.5864 13.8236 12.7636 13.8823 12.9409 13.8823C13.1182 13.8823 13.2954 13.8236 13.4727 13.7059L24.2273 5.70585V17ZM24.2273 1.76471V3.4706L12.9409 11.8235L1.77273 3.4706V1.76471H24.2273Z" fill="#0AD9C6"/>
</symbol><symbol id="icon-instagram" viewBox="0 0 24 24">    <path d="M 8 3 C 5.243 3 3 5.243 3 8 L 3 16 C 3 18.757 5.243 21 8 21 L 16 21 C 18.757 21 21 18.757 21 16 L 21 8 C 21 5.243 18.757 3 16 3 L 8 3 z M 8 5 L 16 5 C 17.654 5 19 6.346 19 8 L 19 16 C 19 17.654 17.654 19 16 19 L 8 19 C 6.346 19 5 17.654 5 16 L 5 8 C 5 6.346 6.346 5 8 5 z M 17 6 A 1 1 0 0 0 16 7 A 1 1 0 0 0 17 8 A 1 1 0 0 0 18 7 A 1 1 0 0 0 17 6 z M 12 7 C 9.243 7 7 9.243 7 12 C 7 14.757 9.243 17 12 17 C 14.757 17 17 14.757 17 12 C 17 9.243 14.757 7 12 7 z M 12 9 C 13.654 9 15 10.346 15 12 C 15 13.654 13.654 15 12 15 C 10.346 15 9 13.654 9 12 C 9 10.346 10.346 9 12 9 z"/></symbol><symbol id="icon-link" viewBox="0 0 8 12">
<g clip-path="url(#clip0)">
<path fill-rule="evenodd" clip-rule="evenodd" d="M0 1.4L4.6 6L0 10.6L1.4 12L7.4 6L1.4 0L0 1.4Z" fill="#2C2E3F" fill-opacity="0.5"/>
</g>

</symbol><symbol id="icon-logo" viewBox="0 0 62 55">
<path d="M30.7499 36.3268C30.0931 36.3268 29.5605 36.8385 29.5605 37.4698C29.5605 38.101 30.0931 38.6127 30.7499 38.6127H30.7614C31.4182 38.6127 31.9451 38.101 31.9451 37.4698C31.9451 36.8385 31.4069 36.3268 30.7499 36.3268Z" fill="black"/>
<path d="M6.61949 32.09C6.39838 31.8774 6.09152 31.7551 5.7787 31.7551C5.46589 31.7551 5.15902 31.8774 4.93779 32.09C4.71656 32.3026 4.58929 32.5975 4.58929 32.8981C4.58929 33.1998 4.71644 33.4936 4.93779 33.7062C5.15914 33.9187 5.46589 34.041 5.7787 34.041C6.09152 34.041 6.39838 33.9187 6.61949 33.7062C6.84084 33.4936 6.96811 33.1987 6.96811 32.8981C6.96811 32.5975 6.84084 32.3026 6.61949 32.09Z" fill="black"/>
<path d="M56.0906 0.437164H5.18399C2.42944 0.437164 0.188477 2.59066 0.188477 5.23769V37.4698C0.188477 40.621 2.85632 43.1847 6.13552 43.1847H24.2145V47.5285H22.5493C19.7948 47.5285 17.5538 49.682 17.5538 52.329V53.2434C17.5538 53.8746 18.0864 54.3864 18.7432 54.3864H42.5314C43.1882 54.3864 43.7208 53.8746 43.7208 53.2434V52.329C43.7208 49.682 41.4798 47.5285 38.7253 47.5285H37.0601V43.1847H55.1391C58.4183 43.1847 61.0862 40.621 61.0862 37.4698V5.23769C61.0862 2.59066 58.8452 0.437164 56.0906 0.437164V0.437164ZM38.7253 49.8144C40.088 49.8144 41.2107 50.8205 41.3313 52.1004H19.9434C20.064 50.8205 21.1866 49.8144 22.5493 49.8144H38.7253ZM26.5933 47.5285V43.1847H34.6813V47.5285H26.5933ZM58.7073 37.4698C58.7073 39.3605 57.1066 40.8987 55.1391 40.8987H6.13552C4.168 40.8987 2.56729 39.3605 2.56729 37.4698V5.23769C2.56729 3.85114 3.74112 2.72313 5.18399 2.72313H29.4479V31.7553H10.0606C9.40377 31.7553 8.87115 32.267 8.87115 32.8983C8.87115 33.5296 9.40377 34.0413 10.0606 34.0413H58.7073V37.4698V37.4698ZM58.7073 31.7553H31.8267V2.72313H56.0906C57.5335 2.72313 58.7073 3.85114 58.7073 5.23769V31.7553Z" fill="black"/>
<path d="M53.9648 5.00909H35.41C34.7533 5.00909 34.2206 5.52081 34.2206 6.15208V14.3815C34.2206 15.0128 34.7531 15.5245 35.41 15.5245H53.9648C54.6216 15.5245 55.1542 15.0128 55.1542 14.3815V6.15208C55.1542 5.52081 54.6216 5.00909 53.9648 5.00909V5.00909ZM52.7754 13.2386H36.5995V7.29506H52.7754V13.2386Z" fill="black"/>
<path d="M15.1243 17.5818H7.36961C6.71282 17.5818 6.18021 18.0935 6.18021 18.7248C6.18021 19.356 6.71282 19.8677 7.36961 19.8677H15.1243C15.7812 19.8677 16.3137 19.356 16.3137 18.7248C16.3137 18.0935 15.7811 17.5818 15.1243 17.5818V17.5818Z" fill="black"/>
<path d="M25.1402 17.5818H19.2174C18.5606 17.5818 18.028 18.0935 18.028 18.7248C18.028 19.356 18.5606 19.8677 19.2174 19.8677H25.1402C25.797 19.8677 26.3296 19.356 26.3296 18.7248C26.3296 18.0935 25.797 17.5818 25.1402 17.5818Z" fill="black"/>
<path d="M25.1403 26.7244H22.9257C22.2689 26.7244 21.7363 27.2361 21.7363 27.8674C21.7363 28.4986 22.2689 29.0103 22.9257 29.0103H25.1403C25.797 29.0103 26.3297 28.4986 26.3297 27.8674C26.3297 27.2361 25.7972 26.7244 25.1403 26.7244Z" fill="black"/>
<path d="M18.1829 26.7256H7.36962C6.71282 26.7256 6.18021 27.2373 6.18021 27.8686C6.18021 28.4999 6.71282 29.0116 7.36962 29.0116H18.1829C18.8398 29.0116 19.3723 28.4999 19.3723 27.8686C19.3723 27.2373 18.8397 26.7256 18.1829 26.7256Z" fill="black"/>
<path d="M11.2471 22.1535H7.36961C6.71282 22.1535 6.18021 22.6652 6.18021 23.2964C6.18021 23.9277 6.71282 24.4394 7.36961 24.4394H11.2471C11.9039 24.4394 12.4365 23.9277 12.4365 23.2964C12.4365 22.6652 11.9039 22.1535 11.2471 22.1535Z" fill="black"/>
<path d="M25.1402 22.1535H16.9591C16.3023 22.1535 15.7697 22.6652 15.7697 23.2964C15.7697 23.9277 16.3023 24.4394 16.9591 24.4394H25.1402C25.797 24.4394 26.3297 23.9277 26.3297 23.2964C26.3297 22.6652 25.7972 22.1535 25.1402 22.1535V22.1535Z" fill="black"/>
<path d="M53.9648 17.5818H35.4628C34.8061 17.5818 34.2734 18.0935 34.2734 18.7248C34.2734 19.356 34.8061 19.8677 35.4628 19.8677H53.9648C54.6216 19.8677 55.1542 19.356 55.1542 18.7248C55.1542 18.0935 54.6216 17.5818 53.9648 17.5818V17.5818Z" fill="black"/>
<path d="M54.806 27.0608C54.5836 26.8471 54.278 26.726 53.9651 26.726C53.6511 26.726 53.3455 26.8471 53.1242 27.0608C52.9018 27.2734 52.7758 27.5672 52.7758 27.8689C52.7758 28.1695 52.9018 28.4644 53.1242 28.677C53.3455 28.8896 53.6513 29.0119 53.9651 29.0119C54.278 29.0119 54.5836 28.8896 54.806 28.677C55.0271 28.4644 55.1545 28.1695 55.1545 27.8689C55.1545 27.5672 55.0273 27.2734 54.806 27.0608Z" fill="black"/>
<path d="M49.1326 26.7256H35.4628C34.8061 26.7256 34.2734 27.2373 34.2734 27.8686C34.2734 28.4999 34.8061 29.0116 35.4628 29.0116H49.1326C49.7894 29.0116 50.322 28.4999 50.322 27.8686C50.322 27.2373 49.7894 26.7256 49.1326 26.7256Z" fill="black"/>
<path d="M53.9648 22.1535H35.4628C34.8061 22.1535 34.2734 22.6652 34.2734 23.2964C34.2734 23.9277 34.8061 24.4394 35.4628 24.4394H53.9648C54.6216 24.4394 55.1542 23.9277 55.1542 23.2964C55.1542 22.6652 54.6216 22.1535 53.9648 22.1535V22.1535Z" fill="black"/>
<path d="M6.28305 11.2036L7.92516 9.36683C8.2653 8.98636 8.2653 8.36943 7.92516 7.98896C7.58493 7.6085 7.03355 7.6085 6.69323 7.98896L4.43538 10.5148C4.09523 10.8952 4.09523 11.5122 4.43538 11.8926L6.69332 14.4182C6.86343 14.6085 7.08633 14.7036 7.30924 14.7036C7.53214 14.7036 7.75504 14.6084 7.92516 14.4182C8.2653 14.0378 8.2653 13.4208 7.92516 13.0404L6.28305 11.2036V11.2036Z" fill="black"/>
<path d="M27.1178 10.515L24.8599 7.98929C24.5198 7.60881 23.9685 7.60881 23.628 7.98929C23.2879 8.36977 23.2879 8.98672 23.628 9.3672L25.2701 11.204L23.628 13.0408C23.2879 13.4211 23.2879 14.038 23.6281 14.4186C23.7982 14.6088 24.0211 14.7039 24.244 14.7039C24.4669 14.7039 24.6898 14.6087 24.8599 14.4186L27.1178 11.8929C27.4579 11.5124 27.4579 10.8954 27.1178 10.515V10.515Z" fill="black"/>
<path d="M10.663 12.7696L11.9716 8.71196H12.8945L10.9999 13.9952H10.3115L8.3974 8.71196H9.32025L10.663 12.7696ZM15.5068 12.7696L16.8154 8.71196H17.7382L15.8437 13.9952H15.1552L13.2411 8.71196H14.164L15.5068 12.7696ZM20.3505 12.7696L21.6591 8.71196H22.582L20.6874 13.9952H19.999L18.0849 8.71196H19.0078L20.3505 12.7696Z" fill="black"/>
</symbol><symbol id="icon-phone" viewBox="0 0 22 24">
<path d="M3.45641 6.62432C3.37185 5.42623 3.63759 4.24606 4.3412 3.29684C4.9512 2.43632 5.74541 1.96636 6.70269 1.69172C7.50898 1.4525 8.03745 1.74561 8.26998 2.64204C8.60217 3.98224 9.07628 5.3225 9.24841 6.73361C9.30277 7.35485 8.90114 8.23322 8.46629 8.6856C7.37614 9.75888 7.60263 10.5399 8.43006 12.1643C8.68675 12.6881 9.09442 13.5934 9.88864 14.7919C10.7161 15.9992 11.1539 16.6472 12.2169 16.0975C13.3977 15.5035 14.2583 15.8855 15.1492 16.8444C15.7531 17.5369 16.4175 18.1318 17.0215 18.8243C17.8942 19.8542 17.8549 20.5641 17.1725 21.2915C15.9434 22.6309 13.9141 23.0736 12.4042 22.1766C11.5707 21.6881 10.7402 21.0487 10.0789 20.303C7.16477 16.9825 5.06297 13.1212 3.79765 8.76321C3.59532 8.02654 3.50171 7.28104 3.45641 6.62432Z" stroke="#0AD9C6" stroke-width="2" stroke-miterlimit="10"/>
</symbol><symbol id="icon-play" viewBox="0 0 14 19">
<path fill-rule="evenodd" clip-rule="evenodd" d="M0.600098 0.399902L13.6001 9.4999L0.600098 18.5999V0.399902Z" fill="#070707"/>
</symbol><symbol id="icon-telegram" viewBox="0 0 50 50"><path d="M 44.376953 5.9863281 C 43.889905 6.0076957 43.415817 6.1432497 42.988281 6.3144531 C 42.565113 6.4845113 40.128883 7.5243408 36.53125 9.0625 C 32.933617 10.600659 28.256963 12.603668 23.621094 14.589844 C 14.349356 18.562196 5.2382813 22.470703 5.2382812 22.470703 L 5.3046875 22.445312 C 5.3046875 22.445312 4.7547875 22.629122 4.1972656 23.017578 C 3.9185047 23.211806 3.6186028 23.462555 3.3730469 23.828125 C 3.127491 24.193695 2.9479735 24.711788 3.015625 25.259766 C 3.2532479 27.184511 5.2480469 27.730469 5.2480469 27.730469 L 5.2558594 27.734375 L 14.158203 30.78125 C 14.385177 31.538434 16.858319 39.792923 17.402344 41.541016 C 17.702797 42.507484 17.984013 43.064995 18.277344 43.445312 C 18.424133 43.635633 18.577962 43.782915 18.748047 43.890625 C 18.815627 43.933415 18.8867 43.965525 18.957031 43.994141 C 18.958531 43.994806 18.959437 43.99348 18.960938 43.994141 C 18.969579 43.997952 18.977708 43.998295 18.986328 44.001953 L 18.962891 43.996094 C 18.979231 44.002694 18.995359 44.013801 19.011719 44.019531 C 19.043456 44.030655 19.062905 44.030268 19.103516 44.039062 C 20.123059 44.395042 20.966797 43.734375 20.966797 43.734375 L 21.001953 43.707031 L 26.470703 38.634766 L 35.345703 45.554688 L 35.457031 45.605469 C 37.010484 46.295216 38.415349 45.910403 39.193359 45.277344 C 39.97137 44.644284 40.277344 43.828125 40.277344 43.828125 L 40.310547 43.742188 L 46.832031 9.7519531 C 46.998903 8.9915162 47.022612 8.334202 46.865234 7.7402344 C 46.707857 7.1462668 46.325492 6.6299361 45.845703 6.34375 C 45.365914 6.0575639 44.864001 5.9649605 44.376953 5.9863281 z M 44.429688 8.0195312 C 44.627491 8.0103707 44.774102 8.032983 44.820312 8.0605469 C 44.866523 8.0881109 44.887272 8.0844829 44.931641 8.2519531 C 44.976011 8.419423 45.000036 8.7721605 44.878906 9.3242188 L 44.875 9.3359375 L 38.390625 43.128906 C 38.375275 43.162926 38.240151 43.475531 37.931641 43.726562 C 37.616914 43.982653 37.266874 44.182554 36.337891 43.792969 L 26.632812 36.224609 L 26.359375 36.009766 L 26.353516 36.015625 L 23.451172 33.837891 L 39.761719 14.648438 A 1.0001 1.0001 0 0 0 38.974609 13 A 1.0001 1.0001 0 0 0 38.445312 13.167969 L 14.84375 28.902344 L 5.9277344 25.849609 C 5.9277344 25.849609 5.0423771 25.356927 5 25.013672 C 4.99765 24.994652 4.9871961 25.011869 5.0332031 24.943359 C 5.0792101 24.874869 5.1948546 24.759225 5.3398438 24.658203 C 5.6298218 24.456159 5.9609375 24.333984 5.9609375 24.333984 L 5.9941406 24.322266 L 6.0273438 24.308594 C 6.0273438 24.308594 15.138894 20.399882 24.410156 16.427734 C 29.045787 14.44166 33.721617 12.440122 37.318359 10.902344 C 40.914175 9.3649615 43.512419 8.2583658 43.732422 8.1699219 C 43.982886 8.0696253 44.231884 8.0286918 44.429688 8.0195312 z M 33.613281 18.792969 L 21.244141 33.345703 L 21.238281 33.351562 A 1.0001 1.0001 0 0 0 21.183594 33.423828 A 1.0001 1.0001 0 0 0 21.128906 33.507812 A 1.0001 1.0001 0 0 0 20.998047 33.892578 A 1.0001 1.0001 0 0 0 20.998047 33.900391 L 19.386719 41.146484 C 19.35993 41.068197 19.341173 41.039555 19.3125 40.947266 L 19.3125 40.945312 C 18.800713 39.30085 16.467362 31.5161 16.144531 30.439453 L 33.613281 18.792969 z M 22.640625 35.730469 L 24.863281 37.398438 L 21.597656 40.425781 L 22.640625 35.730469 z"/></symbol><symbol id="icon-vk" viewBox="0 0 26 26"><path fill-rule="evenodd" d="M 5.097656 0 L 20.90625 0 C 23.707031 0 26 2.292969 26 5.09375 L 26 20.90625 C 26 23.707031 23.707031 26 20.902344 26 L 5.097656 26 C 2.292969 26 0 23.707031 0 20.90625 L 0 5.09375 C 0 2.292969 2.292969 0 5.097656 0 Z M 19.296875 15.734375 C 19.296875 14.777344 19.03125 14.015625 18.511719 13.449219 C 17.984375 12.882813 17.289063 12.511719 16.417969 12.324219 L 16.417969 12.253906 C 17.023438 11.996094 17.496094 11.605469 17.839844 11.0625 C 18.1875 10.527344 18.359375 9.914063 18.359375 9.226563 C 18.359375 8.632813 18.230469 8.109375 17.980469 7.652344 C 17.734375 7.199219 17.355469 6.835938 16.851563 6.5625 C 16.386719 6.308594 15.886719 6.144531 15.351563 6.066406 C 14.816406 5.988281 14.03125 5.949219 12.996094 5.949219 L 7.9375 5.949219 L 7.9375 20.054688 L 13.65625 20.054688 C 14.636719 20.054688 15.441406 19.96875 16.074219 19.789063 C 16.714844 19.613281 17.296875 19.316406 17.828125 18.902344 C 18.277344 18.550781 18.632813 18.117188 18.898438 17.585938 C 19.164063 17.054688 19.296875 16.4375 19.296875 15.734375 Z M 14.757813 9.9375 C 14.757813 9.710938 14.699219 9.476563 14.582031 9.238281 C 14.46875 9 14.285156 8.824219 14.035156 8.714844 C 13.800781 8.613281 13.53125 8.558594 13.210938 8.546875 C 12.890625 8.539063 12.410156 8.535156 11.78125 8.535156 L 11.535156 8.535156 L 11.535156 11.519531 L 11.984375 11.519531 C 12.585938 11.519531 13.011719 11.511719 13.253906 11.5 C 13.496094 11.484375 13.753906 11.421875 14.011719 11.304688 C 14.289063 11.171875 14.488281 10.984375 14.59375 10.753906 C 14.703125 10.519531 14.757813 10.246094 14.757813 9.9375 Z M 15.644531 15.671875 C 15.644531 15.234375 15.5625 14.894531 15.382813 14.648438 C 15.203125 14.398438 14.9375 14.214844 14.585938 14.089844 C 14.371094 14.003906 14.074219 13.960938 13.699219 13.949219 C 13.324219 13.941406 12.820313 13.9375 12.191406 13.9375 L 11.535156 13.9375 L 11.535156 17.46875 L 11.726563 17.46875 C 12.648438 17.46875 13.285156 17.464844 13.636719 17.449219 C 13.992188 17.433594 14.355469 17.351563 14.71875 17.191406 C 15.039063 17.050781 15.273438 16.851563 15.425781 16.585938 C 15.570313 16.316406 15.644531 16.011719 15.644531 15.671875 Z"/></symbol><symbol id="icon-whatsapp" viewBox="0 0 128 128"><path d="M 64 2 C 29.8 2 2 29.8 2 64 C 2 74.5 4.5992188 84.800391 9.6992188 93.900391 L 4.4003906 113.30078 C 3.5003906 116.40078 4.3992188 119.60039 6.6992188 121.90039 C 8.9992188 124.20039 12.200781 125.10078 15.300781 124.30078 L 35.5 119 C 44.3 123.6 54.099609 126 64.099609 126 C 98.299609 126 126.09961 98.2 126.09961 64 C 126.09961 47.4 119.7 31.899219 108 20.199219 C 96.2 8.4992187 80.6 2 64 2 z M 64 8 C 79 8 93.099609 13.800391 103.59961 24.400391 C 114.19961 35.000391 120.1 49.1 120 64 C 120 94.9 94.9 120 64 120 C 54.7 120 45.399219 117.59922 37.199219 113.19922 C 36.799219 112.99922 36.300781 112.80078 35.800781 112.80078 C 35.500781 112.80078 35.3 112.80039 35 112.90039 L 13.699219 118.5 C 12.199219 118.9 11.200781 118.09922 10.800781 117.69922 C 10.400781 117.29922 9.6 116.30078 10 114.80078 L 15.599609 94.199219 C 15.799609 93.399219 15.700781 92.600391 15.300781 91.900391 C 10.500781 83.500391 8 73.8 8 64 C 8 33.1 33.1 8 64 8 z M 64 17 C 38.1 17 17 38 17 64 C 17 72.3 19.200781 80.4 23.300781 87.5 C 24.900781 90.3 25.3 93.599219 24.5 96.699219 L 21.599609 107.19922 L 32.800781 104.30078 C 33.800781 104.00078 34.800781 103.90039 35.800781 103.90039 C 37.800781 103.90039 39.8 104.40039 41.5 105.40039 C 48.4 109.00039 56.1 111 64 111 C 89.9 111 111 89.9 111 64 C 111 51.4 106.09922 39.599219 97.199219 30.699219 C 88.399219 21.899219 76.6 17 64 17 z M 43.099609 36.699219 L 45.900391 36.699219 C 47.000391 36.699219 48.099219 36.799219 49.199219 39.199219 C 50.499219 42.099219 53.399219 49.399609 53.699219 50.099609 C 54.099219 50.799609 54.300781 51.699219 53.800781 52.699219 C 53.300781 53.699219 53.100781 54.299219 52.300781 55.199219 C 51.600781 56.099219 50.699609 57.100781 50.099609 57.800781 C 49.399609 58.500781 48.6 59.300781 49.5 60.800781 C 50.4 62.300781 53.299219 67.1 57.699219 71 C 63.299219 76 68.099609 77.600781 69.599609 78.300781 C 71.099609 79.000781 71.900781 78.900391 72.800781 77.900391 C 73.700781 76.900391 76.5 73.599609 77.5 72.099609 C 78.5 70.599609 79.500781 70.900391 80.800781 71.400391 C 82.200781 71.900391 89.400391 75.499219 90.900391 76.199219 C 92.400391 76.899219 93.399219 77.300391 93.699219 77.900391 C 94.099219 78.700391 94.100391 81.599609 92.900391 85.099609 C 91.700391 88.499609 85.700391 91.899609 82.900391 92.099609 C 80.200391 92.299609 77.699219 93.300391 65.199219 88.400391 C 50.199219 82.500391 40.7 67.099609 40 66.099609 C 39.3 65.099609 34 58.100781 34 50.800781 C 34 43.500781 37.799219 40 39.199219 38.5 C 40.599219 37 42.099609 36.699219 43.099609 36.699219 z"/></symbol></svg>